<svg width="1200" height="420" viewBox="0 0 1200 420" fill="none" xmlns="http://www.w3.org/2000/svg">
  <defs>
    <linearGradient id="bg" x1="0" y1="0" x2="1200" y2="420" gradientUnits="userSpaceOnUse">
      <stop offset="0" stop-color="#050816"/>
      <stop offset="0.5" stop-color="#0b1026"/>
      <stop offset="1" stop-color="#031b2f"/>
    </linearGradient>
    <linearGradient id="wave" x1="70" y1="210" x2="1130" y2="210" gradientUnits="userSpaceOnUse">
      <stop stop-color="#22d3ee"/>
      <stop offset="0.5" stop-color="#a78bfa"/>
      <stop offset="1" stop-color="#34d399"/>
    </linearGradient>
    <linearGradient id="bars" x1="0" y1="130" x2="0" y2="330" gradientUnits="userSpaceOnUse">
      <stop stop-color="#67e8f9"/>
      <stop offset="0.5" stop-color="#8b5cf6"/>
      <stop offset="1" stop-color="#10b981"/>
    </linearGradient>
    <filter id="glow" x="-40%" y="-40%" width="180%" height="180%">
      <feGaussianBlur stdDeviation="8" result="blur"/>
      <feColorMatrix in="blur" type="matrix" values="0 0 0 0 0.13 0 0 0 0 0.83 0 0 0 0 0.93 0 0 0 0.85 0"/>
      <feMerge>
        <feMergeNode/>
        <feMergeNode in="SourceGraphic"/>
      </feMerge>
    </filter>
    <pattern id="grid" width="48" height="48" patternUnits="userSpaceOnUse">
      <path d="M48 0H0V48" stroke="#2dd4bf" stroke-opacity="0.12" stroke-width="1"/>
    </pattern>
    <clipPath id="round">
      <rect x="20" y="20" width="1160" height="380" rx="30"/>
    </clipPath>
  </defs>

  <rect width="1200" height="420" rx="32" fill="url(#bg)"/>
  <g clip-path="url(#round)">
    <rect x="20" y="20" width="1160" height="380" fill="url(#grid)"/>
    <circle cx="190" cy="78" r="180" fill="#22d3ee" opacity="0.11"/>
    <circle cx="1030" cy="320" r="220" fill="#8b5cf6" opacity="0.13"/>
    <circle cx="710" cy="80" r="150" fill="#10b981" opacity="0.08"/>

    <g opacity="0.72">
      <path d="M70 214C110 214 110 155 150 155C190 155 190 266 230 266C270 266 270 134 310 134C350 134 350 292 390 292C430 292 430 156 470 156C510 156 510 234 550 234C590 234 590 186 630 186C670 186 670 246 710 246C750 246 750 126 790 126C830 126 830 294 870 294C910 294 910 164 950 164C990 164 990 236 1030 236C1070 236 1070 206 1130 206" stroke="url(#wave)" stroke-width="8" stroke-linecap="round" filter="url(#glow)">
        <animate attributeName="d" dur="5.5s" repeatCount="indefinite"
          values="
          M70 214C110 214 110 155 150 155C190 155 190 266 230 266C270 266 270 134 310 134C350 134 350 292 390 292C430 292 430 156 470 156C510 156 510 234 550 234C590 234 590 186 630 186C670 186 670 246 710 246C750 246 750 126 790 126C830 126 830 294 870 294C910 294 910 164 950 164C990 164 990 236 1030 236C1070 236 1070 206 1130 206;
          M70 210C110 210 110 284 150 284C190 284 190 142 230 142C270 142 270 252 310 252C350 252 350 160 390 160C430 160 430 264 470 264C510 264 510 138 550 138C590 138 590 304 630 304C670 304 670 170 710 170C750 170 750 238 790 238C830 238 830 130 870 130C910 130 910 284 950 284C990 284 990 174 1030 174C1070 174 1070 214 1130 214;
          M70 214C110 214 110 155 150 155C190 155 190 266 230 266C270 266 270 134 310 134C350 134 350 292 390 292C430 292 430 156 470 156C510 156 510 234 550 234C590 234 590 186 630 186C670 186 670 246 710 246C750 246 750 126 790 126C830 126 830 294 870 294C910 294 910 164 950 164C990 164 990 236 1030 236C1070 236 1070 206 1130 206"/>
      </path>
    </g>

    <g transform="translate(172 292)" fill="url(#bars)" filter="url(#glow)">
      <rect x="0" y="-44" width="14" height="88" rx="7">
        <animate attributeName="height" values="88;132;64;112;88" dur="1.3s" repeatCount="indefinite"/>
        <animate attributeName="y" values="-44;-66;-32;-56;-44" dur="1.3s" repeatCount="indefinite"/>
      </rect>
      <rect x="28" y="-66" width="14" height="132" rx="7">
        <animate attributeName="height" values="132;72;154;96;132" dur="1.05s" repeatCount="indefinite"/>
        <animate attributeName="y" values="-66;-36;-77;-48;-66" dur="1.05s" repeatCount="indefinite"/>
      </rect>
      <rect x="56" y="-32" width="14" height="64" rx="7">
        <animate attributeName="height" values="64;122;86;146;64" dur="1.55s" repeatCount="indefinite"/>
        <animate attributeName="y" values="-32;-61;-43;-73;-32" dur="1.55s" repeatCount="indefinite"/>
      </rect>
      <rect x="84" y="-74" width="14" height="148" rx="7">
        <animate attributeName="height" values="148;84;118;70;148" dur="1.2s" repeatCount="indefinite"/>
        <animate attributeName="y" values="-74;-42;-59;-35;-74" dur="1.2s" repeatCount="indefinite"/>
      </rect>
      <rect x="112" y="-50" width="14" height="100" rx="7">
        <animate attributeName="height" values="100;160;78;128;100" dur="1.42s" repeatCount="indefinite"/>
        <animate attributeName="y" values="-50;-80;-39;-64;-50" dur="1.42s" repeatCount="indefinite"/>
      </rect>
    </g>

    <text x="90" y="104" fill="#e5f7ff" font-family="Inter, Segoe UI, Arial, sans-serif" font-size="42" font-weight="800" letter-spacing="1">
      BANGYUAN HAN
    </text>
    <text x="90" y="144" fill="#7dd3fc" font-family="JetBrains Mono, SFMono-Regular, Consolas, monospace" font-size="18">
      AUDIO ENGINEERING // SIGNAL PROCESSING // DATA SCIENCE
    </text>
    <text x="90" y="348" fill="#c4b5fd" font-family="JetBrains Mono, SFMono-Regular, Consolas, monospace" font-size="17">
      sound.in -> signal.shaped -> data.understood
    </text>

    <g opacity="0.9">
      <circle cx="940" cy="92" r="5" fill="#22d3ee">
        <animate attributeName="opacity" values="0.25;1;0.25" dur="1.8s" repeatCount="indefinite"/>
      </circle>
      <circle cx="980" cy="118" r="4" fill="#a78bfa">
        <animate attributeName="opacity" values="1;0.25;1" dur="2.3s" repeatCount="indefinite"/>
      </circle>
      <circle cx="1030" cy="84" r="6" fill="#34d399">
        <animate attributeName="opacity" values="0.3;1;0.3" dur="2.0s" repeatCount="indefinite"/>
      </circle>
      <circle cx="1080" cy="126" r="4" fill="#67e8f9">
        <animate attributeName="opacity" values="1;0.2;1" dur="1.6s" repeatCount="indefinite"/>
      </circle>
    </g>

    <rect x="20.5" y="20.5" width="1159" height="379" rx="30" stroke="#67e8f9" stroke-opacity="0.28"/>
  </g>
</svg>
